<?xml version="1.0" encoding="UTF-8" standalone="no"?>
<!-- Created with Inkscape (http://www.inkscape.org/) -->
<svg
   xmlns:dc="http://purl.org/dc/elements/1.1/"
   xmlns:cc="http://creativecommons.org/ns#"
   xmlns:rdf="http://www.w3.org/1999/02/22-rdf-syntax-ns#"
   xmlns:svg="http://www.w3.org/2000/svg"
   xmlns="http://www.w3.org/2000/svg"
   xmlns:xlink="http://www.w3.org/1999/xlink"
   xmlns:sodipodi="http://sodipodi.sourceforge.net/DTD/sodipodi-0.dtd"
   xmlns:inkscape="http://www.inkscape.org/namespaces/inkscape"
   width="1700"
   height="500.00003"
   id="svg2"
   sodipodi:version="0.32"
   inkscape:version="0.46"
   version="1.0"
   sodipodi:docbase="C:\Dokumente und Einstellungen\Uwe Pilz\Desktop"
   sodipodi:docname="Weltbank-Logo.svg"
   inkscape:output_extension="org.inkscape.output.svg.inkscape"
   inkscape:export-filename="/home/steffen/Desktop/Weltbank-Logo.png"
   inkscape:export-xdpi="14.399935"
   inkscape:export-ydpi="14.399935">
  <defs
     id="defs4">
    <linearGradient
       inkscape:collect="always"
       id="linearGradient3006">
      <stop
         style="stop-color:#ececec;stop-opacity:1;"
         offset="0"
         id="stop3008" />
      <stop
         style="stop-color:#ececec;stop-opacity:0;"
         offset="1"
         id="stop3010" />
    </linearGradient>
    <linearGradient
       spreadMethod="pad"
       xlink:href="#fieldGradient"
       gradientUnits="userSpaceOnUse"
       id="linearGradient21219"
       y2="16.248501"
       x2="9.5471001"
       y1="41.179295"
       x1="54.509937">
      <stop
         offset="0"
         style="stop-color:#3e79ca;stop-opacity:1;"
         id="stop21221" />
      <stop
         offset="1"
         style="stop-color:#36a8ff;stop-opacity:1;"
         id="stop21223" />
    </linearGradient>
    <linearGradient
       inkscape:collect="always"
       xlink:href="#linearGradient21219"
       id="linearGradient2281"
       gradientUnits="userSpaceOnUse"
       x1="55.454102"
       y1="42.752899"
       x2="9.5471001"
       y2="16.248501" />
    <linearGradient
       id="linearGradient17267">
      <stop
         id="stop17269"
         offset="0"
         style="stop-color:#49c007;stop-opacity:1;" />
      <stop
         id="stop17271"
         offset="1"
         style="stop-color:#209305;stop-opacity:1;" />
    </linearGradient>
    <radialGradient
       inkscape:collect="always"
       xlink:href="#linearGradient17267"
       id="radialGradient2237"
       gradientUnits="userSpaceOnUse"
       gradientTransform="matrix(1.0588416,-3.7199722,3.0428448,0.8877311,290.91789,526.55308)"
       cx="24.112741"
       cy="21.770895"
       fx="24.112741"
       fy="21.770895"
       r="25.796875" />
    <linearGradient
       x1="54.509937"
       y1="41.179295"
       x2="9.5471001"
       y2="16.248501"
       id="edgeGradient"
       gradientUnits="userSpaceOnUse"
       xlink:href="#fieldGradient"
       spreadMethod="pad">
      <stop
         id="stop12"
         style="stop-color:#2b79e0;stop-opacity:1;"
         offset="0" />
      <stop
         id="stop14"
         style="stop-color:#008df7;stop-opacity:1;"
         offset="1" />
    </linearGradient>
    <linearGradient
       inkscape:collect="always"
       xlink:href="#edgeGradient"
       id="linearGradient2277"
       gradientUnits="userSpaceOnUse"
       x1="29.358065"
       y1="54.289597"
       x2="30.028635"
       y2="54.303539" />
    <linearGradient
       x1="52.778114"
       y1="-13.238551"
       x2="22.0144"
       y2="51.987099"
       id="fieldGradient"
       gradientUnits="userSpaceOnUse">
      <stop
         id="stop7"
         style="stop-color:#d8ebff;stop-opacity:1;"
         offset="0" />
      <stop
         id="stop9"
         style="stop-color:#4fa9ff;stop-opacity:1;"
         offset="1" />
    </linearGradient>
    <radialGradient
       inkscape:collect="always"
       xlink:href="#fieldGradient"
       id="radialGradient2275"
       gradientUnits="userSpaceOnUse"
       gradientTransform="matrix(0.3743653,1.1613327,-0.9703876,0.3035298,39.412539,-3.7994531)"
       cx="16.352713"
       cy="26.318125"
       fx="16.352713"
       fy="26.318125"
       r="26.799999" />
    <radialGradient
       id="radialGradient20242">
      <stop
         offset="0"
         style="stop-color:#000000;stop-opacity:0.31182796;"
         id="stop20244" />
      <stop
         offset="0.88"
         style="stop-color:#000000;stop-opacity:0.60573477;"
         id="stop20246" />
      <stop
         offset="1"
         style="stop-color:#000000;stop-opacity:0;"
         id="stop20248" />
    </radialGradient>
    <radialGradient
       inkscape:collect="always"
       xlink:href="#radialGradient20242"
       id="radialGradient2273"
       gradientUnits="userSpaceOnUse"
       gradientTransform="matrix(0.8921213,-5.1635061e-3,4.7540367e-3,0.8298476,3.1699424,4.9060417)"
       cx="31.385874"
       cy="32.356133"
       fx="31.385874"
       fy="32.356133"
       r="26.5" />
    <inkscape:perspective
       sodipodi:type="inkscape:persp3d"
       inkscape:vp_x="0 : 250.00002 : 1"
       inkscape:vp_y="0 : 1000 : 0"
       inkscape:vp_z="500.00003 : 250.00002 : 1"
       inkscape:persp3d-origin="250.00002 : 166.66668 : 1"
       id="perspective10" />
    <radialGradient
       inkscape:collect="always"
       xlink:href="#radialGradient20242"
       id="radialGradient2954"
       gradientUnits="userSpaceOnUse"
       gradientTransform="matrix(0.8921213,-5.1635061e-3,4.7540367e-3,0.8298476,3.1699424,4.9060417)"
       cx="31.385874"
       cy="32.356133"
       fx="31.385874"
       fy="32.356133"
       r="26.5" />
    <radialGradient
       inkscape:collect="always"
       xlink:href="#fieldGradient"
       id="radialGradient2956"
       gradientUnits="userSpaceOnUse"
       gradientTransform="matrix(0.3743653,1.1613327,-0.9703876,0.3035298,39.412539,-3.7994531)"
       cx="16.352713"
       cy="26.318125"
       fx="16.352713"
       fy="26.318125"
       r="26.799999" />
    <linearGradient
       inkscape:collect="always"
       xlink:href="#edgeGradient"
       id="linearGradient2958"
       gradientUnits="userSpaceOnUse"
       x1="29.358065"
       y1="54.289597"
       x2="30.028635"
       y2="54.303539" />
    <radialGradient
       inkscape:collect="always"
       xlink:href="#linearGradient17267"
       id="radialGradient2960"
       gradientUnits="userSpaceOnUse"
       gradientTransform="matrix(1.0588416,-3.7199722,3.0428448,0.8877311,600.78185,526.55308)"
       cx="24.112741"
       cy="21.770895"
       fx="24.112741"
       fy="21.770895"
       r="25.796875" />
    <linearGradient
       inkscape:collect="always"
       xlink:href="#linearGradient21219"
       id="linearGradient2962"
       gradientUnits="userSpaceOnUse"
       x1="55.454102"
       y1="42.752899"
       x2="9.5471001"
       y2="16.248501" />
    <linearGradient
       inkscape:collect="always"
       xlink:href="#linearGradient3006"
       id="linearGradient3020"
       gradientUnits="userSpaceOnUse"
       x1="256.27557"
       y1="165.71866"
       x2="256.27557"
       y2="66.200897" />
    <linearGradient
       inkscape:collect="always"
       xlink:href="#linearGradient3006"
       id="linearGradient3037"
       gradientUnits="userSpaceOnUse"
       x1="256.27557"
       y1="165.71866"
       x2="256.27557"
       y2="66.200897" />
  </defs>
  <sodipodi:namedview
     id="base"
     pagecolor="#ffffff"
     bordercolor="#666666"
     borderopacity="1.0"
     inkscape:pageopacity="0.0"
     inkscape:pageshadow="2"
     inkscape:zoom="0.86235294"
     inkscape:cx="853.60454"
     inkscape:cy="250.00002"
     inkscape:document-units="px"
     inkscape:current-layer="g3146"
     inkscape:window-width="1567"
     inkscape:window-height="1125"
     inkscape:window-x="33"
     inkscape:window-y="25"
     showgrid="false" />
  <metadata
     id="metadata7">
    <rdf:RDF>
      <cc:Work
         rdf:about="">
        <dc:format>image/svg+xml</dc:format>
        <dc:type
           rdf:resource="http://purl.org/dc/dcmitype/StillImage" />
      </cc:Work>
    </rdf:RDF>
  </metadata>
  <g
     inkscape:label="Ebene 1"
     inkscape:groupmode="layer"
     id="layer1"
     transform="translate(521.92958,-338.72032)"
     style="display:inline">
    <g
       id="g3146"
       transform="matrix(0.4835581,0,0,0.4835581,-269.54631,433.15033)"
       style="fill:#000055">
      <path
         id="path2170"
         d="M -4.9286115,838.72035 C -286.19046,838.72035 -521.92957,613.77291 -521.92957,321.7194 C -521.92957,31.000086 -285.77037,-195.28156 -4.9286115,-195.28156 C 274.57897,-195.28156 512.07234,27.511515 512.07234,321.7194 C 512.07234,614.59308 274.99906,838.72035 -4.9286115,838.72035 z M -34.777794,767.09013 C -33.595832,766.05205 -32.060127,763.23014 -31.365142,760.81919 C -30.524471,757.90288 -30.221233,719.41952 -30.459193,645.84517 L -30.81687,535.25467 L -42.425817,535.5707 C -66.379975,536.22281 -108.58762,541.98421 -139.57437,548.83156 C -156.79584,552.63712 -180.8228,558.98767 -182.93245,560.29151 C -184.85293,561.47843 -180.4072,572.56147 -166.99608,600.02037 C -140.37089,654.53474 -105.9449,704.39149 -62.053076,752.00197 C -45.124763,770.3645 -41.063904,772.6109 -34.777794,767.09013 z M 52.337989,755.52321 C 100.0598,706.99012 144.13542,641.06237 172.53834,575.72909 C 176.00905,567.74566 178.56841,560.93343 178.2258,560.59084 C 176.78085,559.14589 145.85188,551.35716 123.76542,546.87629 C 93.201153,540.67543 45.813309,534.64367 27.661401,534.64367 L 24.783872,534.64367 L 24.783872,646.88481 C 24.783872,727.42274 25.175399,760.24909 26.170042,763.1023 C 27.424689,766.7014 32.400601,770.27534 36.39282,770.44481 C 37.064916,770.47333 44.240248,763.75862 52.337989,755.52321 z M -138.09421,762.89672 C -135.55307,760.86612 -135.12344,757.38382 -136.89354,753.16487 C -137.8307,750.93122 -147.90177,735.08131 -159.27371,717.94283 C -193.39507,666.5191 -221.37084,617.65482 -234.60211,586.36945 L -237.79134,578.82851 L -248.56059,583.29261 C -272.54026,593.23275 -318.83212,617.33192 -342.17282,632.02638 L -346.80818,634.94463 L -340.95083,641.82338 C -333.69846,650.34041 -307.35575,674.66011 -292.03512,686.98256 C -257.45057,714.79905 -217.05869,738.36247 -176.18239,754.56757 C -149.30496,765.22293 -142.78858,766.64794 -138.09421,762.89672 z M 161.64726,757.99834 C 220.72516,736.21843 278.33567,698.73326 325.25435,651.54487 L 341.61112,635.09408 L 322.81037,623.9094 C 303.20018,612.24317 263.47386,592.05342 243.52089,583.61279 L 231.91193,578.70191 L 229.55337,584.47317 C 224.09198,597.83685 201.18694,641.86071 189.67498,661.12009 C 182.8455,672.54574 166.92848,697.56607 154.30381,716.72083 C 141.67915,735.8756 130.96847,752.82464 130.50231,754.38536 C 128.4234,761.34548 133.42922,766.04461 141.48435,764.69459 C 143.50064,764.35666 152.57394,761.34334 161.64726,757.99834 z M -344.25844,568.92089 C -326.16833,558.51311 -293.50378,542.4239 -272.16077,533.40852 C -263.75956,529.85981 -256.78083,526.88546 -256.65247,526.79883 C -256.52412,526.71219 -258.28778,520.15714 -260.57172,512.23203 C -273.37425,467.80791 -282.60477,413.72872 -285.32131,367.23043 L -286.21371,351.9555 L -376.33579,351.64212 C -448.03726,351.3928 -466.45517,351.64257 -466.44478,352.86411 C -466.43757,353.70858 -465.61725,362.09805 -464.62169,371.50741 C -456.65661,446.79377 -431.37928,517.29215 -389.84792,580.05072 L -382.03765,591.85294 L -370.78551,584.78098 C -364.59684,580.89139 -352.65965,573.75436 -344.25844,568.92089 z M 389.74974,571.3035 C 420.52717,522.74365 442.57577,466.559 453.52971,408.77824 C 456.03032,395.58777 459.44619,368.89647 460.01978,358.06548 L 460.34335,351.9555 L 370.42863,351.64217 L 280.5139,351.32884 L 279.66867,365.6951 C 276.98399,411.32562 268.483,462.54771 256.2628,506.72536 C 253.26182,517.57429 250.95439,526.59244 251.13517,526.76572 C 251.31593,526.939 259.43736,530.4872 269.18277,534.65062 C 301.01085,548.24819 349.1869,573.79772 371.09638,588.69913 L 375.86143,591.94002 L 379.12668,587.42624 C 380.92257,584.94365 385.70294,577.68842 389.74974,571.3035 z M -183.37377,502.84135 C -147.285,493.05496 -101.24889,485.00255 -64.421716,482.03482 C -54.676311,481.24948 -43.128464,480.25503 -38.759834,479.82493 L -30.81687,479.04292 L -30.81687,415.49921 L -30.81687,351.9555 L -130.82521,351.64284 L -230.83355,351.33017 L -230.04087,362.02979 C -226.95869,403.63312 -221.48907,439.10126 -212.74981,474.15494 C -206.92239,497.52897 -203.82273,507.75979 -202.56842,507.75979 C -201.987,507.75979 -193.3494,505.54649 -183.37377,502.84135 z M 201.13857,496.45634 C 209.95151,464.98268 216.40766,433.24327 220.2161,402.66827 C 222.88382,381.25131 225.11347,353.78683 224.30834,352.261 C 224.04235,351.75693 179.04054,351.3445 124.3043,351.3445 L 24.783872,351.3445 L 24.783872,415.49921 L 24.783872,479.65392 L 27.661401,479.65392 C 33.31299,479.65392 62.337497,482.13275 78.551627,484.00017 C 111.81756,487.83151 153.88651,495.99772 181.81017,504.04416 C 188.53113,505.98087 194.91737,507.60918 196.00179,507.66261 C 197.46887,507.73492 198.78353,504.8669 201.13857,496.45634 z M -285.37475,281.07982 C -282.74181,235.05917 -273.30211,179.64098 -260.57172,135.46723 C -258.28778,127.54211 -256.52412,120.99861 -256.65247,120.9261 C -256.78083,120.85359 -262.65976,118.41657 -269.71678,115.51049 C -299.78214,103.12961 -340.13509,82.304909 -368.20736,64.683053 C -375.07583,60.371491 -381.15804,56.853565 -381.72338,56.86543 C -382.28872,56.877308 -386.42674,62.513756 -390.919,69.390873 C -434.22824,135.6923 -457.95082,204.92134 -465.86836,288.1142 L -466.6541,296.37057 L -376.43391,296.05716 L -286.21371,295.74376 L -285.37475,281.07982 z M -30.81687,232.20005 L -30.81687,168.65634 L -41.203823,167.80261 C -77.262593,164.83889 -86.612793,163.8703 -104.41943,161.25418 C -130.5989,157.40792 -150.82067,153.28127 -176.8452,146.47424 C -188.6069,143.39783 -199.42728,140.61253 -200.89049,140.28469 C -203.2583,139.75418 -203.82508,140.60955 -206.04414,148.0625 C -217.61018,186.90839 -226.51738,237.98222 -230.04259,285.66946 L -230.83355,296.36909 L -130.82521,296.05642 L -30.81687,295.74376 L -30.81687,232.20005 z M 224.30834,295.43826 C 225.11276,293.91378 222.88498,266.45834 220.2182,245.03099 C 217.11019,220.05803 209.77807,183.10011 203.12674,158.88038 C 200.35812,148.79893 197.89818,140.35338 197.66021,140.11251 C 197.42222,139.87165 189.90933,141.66015 180.96488,144.08698 C 136.54875,156.13805 91.902539,163.65367 44.727506,167.02083 L 24.783872,168.44432 L 24.783872,232.39954 L 24.783872,296.35476 L 124.3043,296.35476 C 179.04054,296.35476 224.04235,295.94233 224.30834,295.43826 z M 460.02231,289.63378 C 459.49109,279.52352 456.34999,255.09 453.65992,240.14301 C 442.76347,179.5984 417.35808,117.17979 382.71793,65.845317 C 379.37715,60.894504 376.35148,56.84385 375.99419,56.84385 C 375.63692,56.84385 367.26773,61.722235 357.39601,67.684712 C 324.96472,87.273062 281.8373,109.04133 256.65732,118.53184 C 253.46486,119.73511 250.85285,121.13686 250.85285,121.64685 C 250.85285,122.15684 251.93124,126.06889 253.24925,130.34029 C 260.65014,154.32488 269.51096,195.2756 273.96737,226.09007 C 276.51362,243.69645 280.16143,281.94671 280.17376,291.16916 L 280.18071,296.37052 L 370.26203,296.05714 L 460.34335,295.74376 L 460.02231,289.63378 z M -30.81687,-0.80613477 C -30.81687,-113.92476 -30.819864,-114.0609 -33.381677,-117.5066 C -36.895205,-122.23238 -42.355394,-122.67933 -47.601098,-118.67054 C -53.634513,-114.05977 -79.221156,-85.566781 -94.36058,-66.599734 C -112.05541,-44.43119 -126.5277,-23.640091 -141.29102,0.82120736 C -159.74157,31.391891 -185.91813,85.057868 -183.45656,87.267087 C -182.84475,87.816178 -176.02035,89.956477 -168.29124,92.02331 C -136.7059,100.46949 -103.00637,106.75769 -72.364681,109.92284 C -62.283226,110.96421 -52.110123,112.01842 -49.757783,112.26554 C -47.405444,112.51264 -42.181418,112.65403 -38.148837,112.57971 L -30.81687,112.44459 L -30.81687,-0.80613477 z M 54.83197,111.19796 C 78.273343,108.9583 101.78594,105.54418 122.47385,101.37612 C 141.24456,97.594333 176.55358,88.715224 177.9207,87.432985 C 178.46989,86.917902 175.54752,78.862307 171.42657,69.531671 C 142.89718,4.9355771 100.08131,-58.773446 51.826231,-108.4309 C 40.89521,-119.6796 38.504585,-121.56734 35.190328,-121.56734 C 32.609769,-121.56734 30.332558,-120.51649 28.357363,-118.41419 L 25.39487,-115.26103 L 25.07087,-1.1027251 L 24.746859,113.05559 L 30.06807,113.05559 C 32.994734,113.05559 44.138492,112.21966 54.83197,111.19796 z M -232.04347,56.1375 C -216.52576,20.741219 -193.54784,-18.741702 -152.53551,-80.480914 C -143.93159,-93.433101 -136.50814,-105.55985 -136.03894,-107.42926 C -135.47133,-109.69085 -135.82731,-111.80713 -137.10279,-113.75377 C -140.78385,-119.37177 -151.22768,-117.17257 -182.20769,-104.25587 C -237.50497,-81.200387 -287.9546,-47.171365 -331.25618,-3.7204571 L -347.0122,12.089902 L -344.33658,14.256486 C -339.69473,18.01523 -308.21997,35.860601 -289.52369,45.333978 C -267.01536,56.738917 -238.82166,69.095859 -237.73134,68.033922 C -237.27782,67.592207 -234.71828,62.23882 -232.04347,56.1375 z M 250.21697,61.152223 C 278.50303,48.713062 327.36892,22.727804 339.22787,13.819195 C 341.27489,12.28145 339.8608,10.592788 321.49467,-7.3572836 C 292.20072,-35.987635 266.54176,-55.924267 234.22141,-75.167332 C 199.9335,-95.581845 151.2856,-116.67936 138.50049,-116.67936 C 132.38139,-116.67936 129.26268,-113.32751 130.34528,-107.91448 C 130.77904,-105.74572 140.96204,-89.09639 152.97417,-70.91599 C 164.98631,-52.735595 181.17178,-27.226021 188.94187,-14.228058 C 202.68274,8.757939 223.16106,47.836232 228.90744,62.037326 C 230.47121,65.901883 231.85772,69.063794 231.98857,69.063794 C 232.11941,69.063794 240.32219,65.503586 250.21697,61.152223 z"
         style="fill:#000055"
         sodipodi:nodetypes="czzzzcscccssssccssscccssccssccccccssccccccccssssccssscccsscccccscccccssscccccscccccccssccsscccccsssccssssssccccccccssssccccccsssscccccccssssssssccccccssssssssccccssssscccccccsssscccssccsssssssssc" />
      <text
         xml:space="preserve"
         style="font-size:99.13925934px;font-style:normal;font-variant:normal;font-weight:bold;font-stretch:normal;fill:#000055;fill-opacity:1;stroke:none;stroke-width:1px;stroke-linecap:butt;stroke-linejoin:miter;stroke-opacity:1;font-family:Rasheeq;-inkscape-font-specification:Rasheeq Bold"
         x="537.55981"
         y="229.75829"
         id="text2383"><tspan
           sodipodi:role="line"
           id="tspan2385"
           x="537.55981"
           y="229.75829"
           style="font-size:516.3503418px;font-style:normal;font-variant:normal;font-weight:bold;font-stretch:normal;fill:#000055;font-family:Rasheeq;-inkscape-font-specification:Rasheeq Bold">GeoPortal</tspan></text>
      <text
         xml:space="preserve"
         style="font-size:112.91197205000000281px;font-style:normal;font-weight:normal;fill:#000055;fill-opacity:1;stroke:none;stroke-width:1px;stroke-linecap:butt;stroke-linejoin:miter;stroke-opacity:1;font-family:Bitstream Vera Sans;writing-mode:lr"
         x="2978.2917"
         y="473.52081"
         id="text2387"><tspan
           sodipodi:role="line"
           id="tspan2389"
           x="2978.2917"
           y="473.52081"
           style="font-size:235.23327636999999868px;font-style:normal;font-variant:normal;font-weight:bold;font-stretch:normal;text-align:end;text-anchor:end;fill:#000055;font-family:Rasheeq;-inkscape-font-specification:Rasheeq Bold;writing-mode:lr">create a</tspan><tspan
           sodipodi:role="line"
           x="2978.2917"
           y="767.56244"
           style="font-size:235.23327636999999868px;font-style:normal;font-variant:normal;font-weight:bold;font-stretch:normal;text-align:end;text-anchor:end;fill:#000055;font-family:Rasheeq;-inkscape-font-specification:Rasheeq Bold;writing-mode:lr"
           id="tspan2393">geospatial Community</tspan></text>
    </g>
    <circle
       sodipodi:ry="26.5"
       sodipodi:rx="26.5"
       sodipodi:cy="29.5"
       sodipodi:cx="32.5"
       id="circle4163"
       style="fill:url(#radialGradient2273);fill-opacity:1"
       transform="matrix(3.1401408,0,0,3.1714795,303.69297,386.08908)"
       r="26.5"
       cy="29.5"
       cx="32.5" />
    <circle
       sodipodi:ry="25.799999"
       sodipodi:rx="25.799999"
       sodipodi:cy="31"
       sodipodi:cx="31"
       id="circle4165"
       style="fill:url(#radialGradient2275);fill-opacity:1;stroke:url(#linearGradient2277);stroke-width:2"
       r="25.799999"
       cy="31"
       cx="31"
       transform="matrix(2.7672493,0,0,2.8092435,313.62216,392.56118)" />
    <path
       sodipodi:type="arc"
       style="opacity:0.29807691;fill:#ffffff;fill-opacity:1;stroke:none;stroke-width:5.17704582;stroke-linecap:butt;stroke-linejoin:miter;stroke-miterlimit:4;stroke-dasharray:none;stroke-opacity:1"
       id="path3228"
       sodipodi:cx="30.894024"
       sodipodi:cy="29.327902"
       sodipodi:rx="25.115286"
       sodipodi:ry="26.448841"
       d="M 56.00931,29.327902 A 25.115286,26.448841 0 1 1 5.778738,29.327902 A 25.115286,26.448841 0 1 1 56.00931,29.327902 z"
       transform="matrix(2.7220733,0,0,2.6275504,314.81875,402.58719)" />
    <path
       style="fill:url(#radialGradient2237);fill-opacity:1;stroke:#1a7a0b;stroke-width:1.27105081;stroke-miterlimit:4;stroke-dasharray:none;stroke-opacity:1"
       d="M 351.93281,422.67135 C 342.97011,430.75829 336.30776,440.95429 332.30204,452.14408 C 334.48129,449.25601 337.14581,446.77776 339.63421,445.22434 C 348.24296,448.71218 359.00388,438.36998 361.49733,430.82821 C 366.66882,426.85473 357.47937,424.39266 351.93281,422.67135 z M 411.24999,420.52286 C 404.14637,423.61281 396.09203,430.76244 399.00411,434.07304 C 404.17006,430.53197 410.01968,431.82141 405.89868,438.80754 C 400.19021,447.89328 395.28947,435.41641 389.45687,439.09181 C 392.29157,441.59698 381.81774,445.32288 378.70664,445.49442 C 372.37326,444.45382 384.09622,450.18085 379.64074,452.15673 C 366.6727,454.31847 386.03295,461.52118 386.33957,450.86258 C 398.38343,444.12093 398.78486,465.49436 411.31429,462.5281 C 407.87696,457.41172 412.04299,451.37781 418.50796,450.6056 C 430.22868,453.90103 410.74073,459.69434 419.33029,461.23335 C 418.41171,466.07495 407.33262,467.44791 403.2678,471.76515 C 390.17578,471.40571 385.18983,452.0754 371.2307,460.97897 C 361.69447,463.0554 356.3381,476.50418 358.933,485.53769 C 363.24496,498.16502 372.79435,499.19136 383.9202,499.68158 C 394.17084,505.07408 391.58628,524.31924 395.5069,535.32996 C 401.3349,540.82698 418.2488,553.94238 418.01328,537.37139 C 416.14869,525.99737 430.48254,504.05502 435.87785,494.14748 C 444.33503,479.95486 427.3674,495.63944 423.50999,488.93137 C 421.0104,474.06033 435.72103,487.24559 442.26556,482.76714 C 448.48452,486.64968 458.37366,479.66746 459.5967,490.59762 C 461.97937,504.05169 467.29878,486.03337 470.36977,484.47167 C 471.62761,472.52317 470.04776,460.11182 465.05075,448.29012 C 458.69271,433.2485 447.83987,421.51681 434.83123,413.97598 C 431.99034,413.58917 429.15758,413.84681 427.9625,416.20392 C 429.55133,424.1499 421.64419,423.82322 417.6081,419.09053 C 415.8792,418.93172 413.61786,419.49288 411.24999,420.52286 z M 328.48288,468.7105 C 327.20281,480.06772 328.53817,491.86685 332.89273,503.18644 C 332.08586,494.19335 333.96308,484.12015 340.39856,478.42244 C 342.17167,476.58774 339.53019,470.35764 328.58519,468.95252 C 328.54092,468.8751 328.52444,468.78887 328.48288,468.7105 z"
       id="circle14328" />
    <circle
       sodipodi:ry="25.799999"
       sodipodi:rx="25.799999"
       sodipodi:cy="31"
       sodipodi:cx="31"
       id="circle13325"
       style="fill:none;stroke:url(#linearGradient2281);stroke-width:2"
       r="25.799999"
       cy="31"
       cx="31"
       transform="matrix(2.7672493,0,0,2.8092435,313.62216,392.56118)" />
    <circle
       sodipodi:ry="26.5"
       sodipodi:rx="26.5"
       sodipodi:cy="29.5"
       sodipodi:cx="32.5"
       id="circle2944"
       style="fill:url(#radialGradient2954);fill-opacity:1"
       transform="matrix(3.1401408,0,0,3.1714795,613.55693,386.08908)"
       r="26.5"
       cy="29.5"
       cx="32.5" />
    <circle
       sodipodi:ry="25.799999"
       sodipodi:rx="25.799999"
       sodipodi:cy="31"
       sodipodi:cx="31"
       id="circle2946"
       style="fill:url(#radialGradient2956);fill-opacity:1;stroke:url(#linearGradient2958);stroke-width:2"
       r="25.799999"
       cy="31"
       cx="31"
       transform="matrix(2.7672493,0,0,2.8092435,623.48612,392.56118)" />
    <path
       sodipodi:type="arc"
       style="opacity:0.29807691;fill:#ffffff;fill-opacity:1;stroke:none;stroke-width:5.17704582;stroke-linecap:butt;stroke-linejoin:miter;stroke-miterlimit:4;stroke-dasharray:none;stroke-opacity:1"
       id="path2948"
       sodipodi:cx="30.894024"
       sodipodi:cy="29.327902"
       sodipodi:rx="25.115286"
       sodipodi:ry="26.448841"
       d="M 56.00931,29.327902 A 25.115286,26.448841 0 1 1 5.778738,29.327902 A 25.115286,26.448841 0 1 1 56.00931,29.327902 z"
       transform="matrix(2.7220733,0,0,2.6275504,624.68271,402.58719)" />
    <path
       style="fill:url(#radialGradient2960);fill-opacity:1;stroke:#1a7a0b;stroke-width:1.27105081;stroke-miterlimit:4;stroke-dasharray:none;stroke-opacity:1"
       d="M 661.79677,422.67135 C 652.83407,430.75829 646.17172,440.95429 642.166,452.14408 C 644.34525,449.25601 647.00977,446.77776 649.49817,445.22434 C 658.10692,448.71218 668.86784,438.36998 671.36129,430.82821 C 676.53278,426.85473 667.34333,424.39266 661.79677,422.67135 z M 721.11395,420.52286 C 714.01033,423.61281 705.95599,430.76244 708.86807,434.07304 C 714.03402,430.53197 719.88364,431.82141 715.76264,438.80754 C 710.05417,447.89328 705.15343,435.41641 699.32083,439.09181 C 702.15553,441.59698 691.6817,445.32288 688.5706,445.49442 C 682.23722,444.45382 693.96018,450.18085 689.5047,452.15673 C 676.53666,454.31847 695.89691,461.52118 696.20353,450.86258 C 708.24739,444.12093 708.64882,465.49436 721.17825,462.5281 C 717.74092,457.41172 721.90695,451.37781 728.37192,450.6056 C 740.09264,453.90103 720.60469,459.69434 729.19425,461.23335 C 728.27567,466.07495 717.19658,467.44791 713.13176,471.76515 C 700.03974,471.40571 695.05379,452.0754 681.09466,460.97897 C 671.55843,463.0554 666.20206,476.50418 668.79696,485.53769 C 673.10892,498.16502 682.65831,499.19136 693.78416,499.68158 C 704.0348,505.07408 701.45024,524.31924 705.37086,535.32996 C 711.19886,540.82698 728.11276,553.94238 727.87724,537.37139 C 726.01265,525.99737 740.3465,504.05502 745.74181,494.14748 C 754.19899,479.95486 737.23136,495.63944 733.37395,488.93137 C 730.87436,474.06033 745.58499,487.24559 752.12952,482.76714 C 758.34848,486.64968 768.23762,479.66746 769.46066,490.59762 C 771.84333,504.05169 777.16274,486.03337 780.23373,484.47167 C 781.49157,472.52317 779.91172,460.11182 774.91471,448.29012 C 768.55667,433.2485 757.70383,421.51681 744.69519,413.97598 C 741.8543,413.58917 739.02154,413.84681 737.82646,416.20392 C 739.41529,424.1499 731.50815,423.82322 727.47206,419.09053 C 725.74316,418.93172 723.48182,419.49288 721.11395,420.52286 z M 638.34684,468.7105 C 637.06677,480.06772 638.40213,491.86685 642.75669,503.18644 C 641.94982,494.19335 643.82704,484.12015 650.26252,478.42244 C 652.03563,476.58774 649.39415,470.35764 638.44915,468.95252 C 638.40488,468.8751 638.3884,468.78887 638.34684,468.7105 z"
       id="path2950" />
    <circle
       sodipodi:ry="25.799999"
       sodipodi:rx="25.799999"
       sodipodi:cy="31"
       sodipodi:cx="31"
       id="circle2952"
       style="fill:none;stroke:url(#linearGradient2962);stroke-width:2"
       r="25.799999"
       cy="31"
       cx="31"
       transform="matrix(2.7672493,0,0,2.8092435,623.48612,392.56118)" />
  </g>
  <g
     inkscape:groupmode="layer"
     id="layer2"
     inkscape:label="shadow"
     style="display:inline"
     sodipodi:insensitive="true">
    <path
       sodipodi:type="arc"
       style="opacity:1;fill:url(#linearGradient3020);fill-opacity:1;stroke:none;stroke-width:1;stroke-linecap:round;stroke-linejoin:round;stroke-miterlimit:0.40000001;stroke-dasharray:none;stroke-dashoffset:0;stroke-opacity:1;display:inline"
       id="path3014"
       sodipodi:cx="256.27557"
       sodipodi:cy="59.924995"
       sodipodi:rx="219.1678"
       sodipodi:ry="96.828102"
       d="M 475.44337,59.924995 A 219.1678,96.828102 0 1 1 37.107773,59.924995 A 219.1678,96.828102 0 1 1 475.44337,59.924995 z"
       transform="matrix(1.1404019,-2.5118985e-2,-5.6856148e-2,-2.581269,-38.85005,411.11994)" />
    <path
       sodipodi:type="arc"
       style="opacity:1;fill:url(#linearGradient3037);fill-opacity:1;stroke:none;stroke-width:1;stroke-linecap:round;stroke-linejoin:round;stroke-miterlimit:0.40000001;stroke-dasharray:none;stroke-dashoffset:0;stroke-opacity:1;display:inline"
       id="path3004"
       sodipodi:cx="256.27557"
       sodipodi:cy="59.924995"
       sodipodi:rx="219.1678"
       sodipodi:ry="96.828102"
       d="M 475.44337,59.924995 A 219.1678,96.828102 0 1 1 37.107773,59.924995 A 219.1678,96.828102 0 1 1 475.44337,59.924995 z"
       transform="matrix(1.1406785,0,0,2.5818951,-42.328039,95.279976)" />
  </g>
</svg>
